<?xml version="1.0" encoding="UTF-8" standalone="no"?>
<?xml-stylesheet href="styles.css" type="text/css"?>
<!DOCTYPE svg PUBLIC "-//W3C//DTD SVG 1.1//EN"
 "http://www.w3.org/Graphics/SVG/1.1/DTD/svg11.dtd">
<!-- Generated by graphviz version 2.43.0 (0)
 -->
<!-- Title: MyXOR Pages: 1 -->
<svg width="325pt" height="261pt"
 viewBox="0.00 0.00 325.00 261.00" xmlns="http://www.w3.org/2000/svg" xmlns:xlink="http://www.w3.org/1999/xlink">
<g id="graph0" class="graph" transform="scale(1 1) rotate(0) translate(4 257)">
<title>MyXOR</title>
<polygon fill="white" stroke="transparent" points="-4,4 -4,-257 321,-257 321,4 -4,4"/>
<g id="clust1" class="cluster">
<title>cluster_MyXOR</title>
<polygon fill="#fff8dc" stroke="black" points="8,-8 8,-245 309,-245 309,-8 8,-8"/>
<text text-anchor="middle" x="158.5" y="-229.8" font-family="Times,serif" font-size="14.00">MyXOR</text>
</g>
<!-- cluster_MyXOR_clock -->
<g id="node1" class="node">
<title>cluster_MyXOR_clock</title>
<polygon fill="#cccccc" stroke="black" points="70,-214 16,-214 16,-178 70,-178 70,-214"/>
<text text-anchor="middle" x="43" y="-192.3" font-family="Times,serif" font-size="14.00">clock</text>
</g>
<!-- cluster_MyXOR_reset -->
<g id="node2" class="node">
<title>cluster_MyXOR_reset</title>
<polygon fill="#cccccc" stroke="black" points="70,-160 16,-160 16,-124 70,-124 70,-160"/>
<text text-anchor="middle" x="43" y="-138.3" font-family="Times,serif" font-size="14.00">reset</text>
</g>
<!-- cluster_MyXOR_io_a -->
<g id="node3" class="node">
<title>cluster_MyXOR_io_a</title>
<polygon fill="#cccccc" stroke="black" points="70,-106 16,-106 16,-70 70,-70 70,-106"/>
<text text-anchor="middle" x="43" y="-84.3" font-family="Times,serif" font-size="14.00">io_a</text>
</g>
<!-- op_xor_1 -->
<g id="node6" class="node">
<title>op_xor_1</title>
<polygon fill="#d8bfd8" stroke="transparent" points="114,-36 114,-86 203,-86 203,-36 114,-36"/>
<polygon fill="none" stroke="black" points="114.5,-61 114.5,-86 137.5,-86 137.5,-61 114.5,-61"/>
<text text-anchor="start" x="119.5" y="-69.8" font-family="Times,serif" font-size="14.00">●</text>
<polygon fill="none" stroke="black" points="137.5,-36 137.5,-86 180.5,-86 180.5,-36 137.5,-36"/>
<text text-anchor="start" x="142.5" y="-57.3" font-family="Times,serif" font-size="14.00"> xor </text>
<polygon fill="none" stroke="black" points="180.5,-36 180.5,-86 203.5,-86 203.5,-36 180.5,-36"/>
<text text-anchor="start" x="185.5" y="-57.3" font-family="Times,serif" font-size="14.00">●</text>
<polygon fill="none" stroke="black" points="114.5,-36 114.5,-61 137.5,-61 137.5,-36 114.5,-36"/>
<text text-anchor="start" x="119.5" y="-44.8" font-family="Times,serif" font-size="14.00">●</text>
</g>
<!-- cluster_MyXOR_io_a&#45;&gt;op_xor_1 -->
<g id="edge2" class="edge">
<title>cluster_MyXOR_io_a&#45;&gt;op_xor_1:in1</title>
<path fill="none" stroke="black" d="M70.15,-80.18C80.15,-77.7 91.92,-75.36 103.47,-74.43"/>
<polygon fill="black" stroke="black" points="103.66,-77.92 113.5,-74 103.36,-70.93 103.66,-77.92"/>
</g>
<!-- cluster_MyXOR_io_b -->
<g id="node4" class="node">
<title>cluster_MyXOR_io_b</title>
<polygon fill="#cccccc" stroke="black" points="70,-52 16,-52 16,-16 70,-16 70,-52"/>
<text text-anchor="middle" x="43" y="-30.3" font-family="Times,serif" font-size="14.00">io_b</text>
</g>
<!-- cluster_MyXOR_io_b&#45;&gt;op_xor_1 -->
<g id="edge3" class="edge">
<title>cluster_MyXOR_io_b&#45;&gt;op_xor_1:in2</title>
<path fill="none" stroke="black" d="M70.15,-41.82C80.15,-44.3 91.92,-46.64 103.47,-47.57"/>
<polygon fill="black" stroke="black" points="103.36,-51.07 113.5,-48 103.66,-44.08 103.36,-51.07"/>
</g>
<!-- cluster_MyXOR_io_c -->
<g id="node5" class="node">
<title>cluster_MyXOR_io_c</title>
<polygon fill="#e0ffff" stroke="black" points="301,-79 247,-79 247,-43 301,-43 301,-79"/>
<text text-anchor="middle" x="274" y="-57.3" font-family="Times,serif" font-size="14.00">io_c</text>
</g>
<!-- op_xor_1&#45;&gt;cluster_MyXOR_io_c -->
<g id="edge1" class="edge">
<title>op_xor_1:out&#45;&gt;cluster_MyXOR_io_c</title>
<path fill="none" stroke="black" d="M204.5,-61C215.02,-61 226.46,-61 236.92,-61"/>
<polygon fill="black" stroke="black" points="236.98,-64.5 246.98,-61 236.98,-57.5 236.98,-64.5"/>
</g>
</g>
</svg>
